<svg version="1" xmlns="http://www.w3.org/2000/svg" width="682.667" height="682.667" viewBox="0 0 512.000000 512.000000"><path d="M249.5 33.4c-6.7 2.9-27.4 27.8-38.5 46-4.5 7.6-16 30.5-16 32 0 .3 27.5.6 61 .6 33.6 0 61-.3 61-.6 0-2.3-15.1-30.9-21.1-39.9-4-6.1-7.5-11.2-7.8-11.5-.3-.3-2.4-2.8-4.6-5.5-7-8.8-17.9-19.7-21.2-21.1-4-1.7-8.9-1.7-12.8 0zM187.4 133.7c-4.4 14.6-8.3 35.3-10.1 52.8-1.5 15.5-.8 60.7 1.1 71.2.2 1 .7 4.9 1.2 8.8.4 3.8.8 7.2.9 7.5.1.3.7 3.7 1.4 7.7 1.7 9.5 1.6 9 3 15.6.7 3.2 1.1 6.1.8 6.3-.2.2-2.4.7-4.8 1-8.9 1.1-10.5 1.4-15.9 3-25.1 7.4-40.4 25.5-46.6 54.8-4.4 21.1-3.6 52.4 2.2 83.1.9 4.4 1.7 9.1 2 10.5 2.4 13.4 5.5 20 10.6 22.1 1.8.8 6.5 1.4 10.5 1.4 11 0 15.2-3.9 17.8-16.7 3.2-15.9 8.1-25 18-33 9.6-7.8 23.3-12.2 41.3-13.3l9-.5 5.1 8 5.2 8h31.6l2.6-3.7c1.3-2.1 3.7-5.7 5.1-8.1l2.7-4.3 8.2.6c11.3.8 14.3 1.2 21.2 3 21.2 5.4 34.5 19.9 38.9 42.4 1.8 9.2 1.9 9.5 5 12.9 6.6 7.4 23.9 6.6 29.1-1.4 1.6-2.4 5.9-20 7-28.3.3-2.3.7-4.6.9-5 .2-.3.7-3.5 1.1-7.1.4-3.6.8-6.7 1-7 .7-1.1 1.8-21 1.9-32 0-15.2-1.5-28.5-4.5-39-3.3-11.4-10.5-24.6-17.5-31.6-9.6-9.8-26.9-17.5-42.2-18.7-2.9-.3-5.6-.7-5.9-1.1-.4-.3-.1-2.8.5-5.4.6-2.6 1.4-6.1 1.7-7.7.3-1.7 1.2-6.9 2-11.7.9-4.8 1.8-10.6 2.1-13 .3-2.4.7-5.8 1-7.6 2.7-19.9 2.6-63.3-.2-82.2-3-20.6-3.9-24.8-8.4-40.8l-2.1-7.2H189.1l-1.7 5.7zm84.1 12.9c18.5 6.4 31.2 23.4 32.1 43 1.3 29-22.6 52.4-51.1 50.1-24.9-2.1-43.1-21-44.1-45.9-.4-9.8 1.1-16 5.8-24.9 5.7-10.8 18-20.4 30.3-23.6 6.4-1.6 20.4-1 27 1.3z"/><path d="M248.5 160.9c-9.2 2.4-17.3 9-21.5 17.6-3.5 7.2-3.5 19.8 0 27 3.2 6.4 9.6 12.8 15.7 15.6 7 3.4 19.8 3.3 26.8-.1 6.4-3.1 12.4-9.1 15.5-15.5 3.5-7.2 3.5-19.8 0-27-3.2-6.4-9.6-12.8-15.5-15.5-5.1-2.3-16.1-3.4-21-2.1z"/></svg>